<svg width="52" height="58" viewBox="0 0 52 58" fill="none" xmlns="http://www.w3.org/2000/svg">
<path d="M46.6074 21.9193L27.712 0.679301C27.5071 0.466738 27.2504 0.295676 26.9601 0.17827C26.6698 0.0608654 26.3531 0 26.0324 0C25.7117 0 25.395 0.0608654 25.1047 0.17827C24.8144 0.295676 24.5577 0.466738 24.3528 0.679301L5.45737 21.9193C3.2269 24.3934 1.62461 27.2438 0.754364 30.2857C-0.115882 33.3275 -0.234663 36.4931 0.405718 39.577C1.0461 42.661 2.43135 45.5946 4.47169 48.1877C6.51202 50.7808 9.1619 52.9755 12.2496 54.6295C15.3372 56.2836 18.7938 57.3601 22.3952 57.7892C25.9966 58.2184 29.6624 57.9906 33.1551 57.1207C36.6478 56.2508 39.8894 54.7581 42.6697 52.7395C45.4501 50.7208 47.7072 48.2213 49.2948 45.4028C51.4565 41.6672 52.3511 37.4817 51.8757 33.3275C51.4004 29.1734 49.5743 25.2191 46.6074 21.9193ZM45.5157 43.6298C43.7974 46.8285 41.046 49.533 37.5908 51.4196C34.1355 53.3061 30.1227 54.295 26.0324 54.2679C21.9614 54.3034 17.9636 53.3342 14.5112 51.4748C11.0588 49.6154 8.296 46.9434 6.54911 43.7745C4.71298 40.6563 3.94706 37.1514 4.34125 33.6712C4.73544 30.1911 6.27337 26.88 8.77457 24.1266L26.0324 4.73191L43.2902 24.1266C45.7914 26.88 47.3294 30.1911 47.7236 33.6712C48.1177 37.1514 47.3518 40.6563 45.5157 43.7745V43.6298ZM42.8284 36.1758C42.8284 40.0145 41.0588 43.6959 37.9089 46.4102C34.7591 49.1246 30.487 50.6495 26.0324 50.6495C25.4756 50.6495 24.9416 50.4588 24.5478 50.1196C24.1541 49.7803 23.9329 49.3201 23.9329 48.8403C23.9329 48.3604 24.1541 47.9002 24.5478 47.561C24.9416 47.2217 25.4756 47.0311 26.0324 47.0311C29.3733 47.0311 32.5774 45.8874 34.9398 43.8516C37.3022 41.8159 38.6294 39.0548 38.6294 36.1758C38.6294 35.696 38.8506 35.2358 39.2443 34.8965C39.638 34.5573 40.172 34.3666 40.7289 34.3666C41.2857 34.3666 41.8197 34.5573 42.2134 34.8965C42.6072 35.2358 42.8284 35.696 42.8284 36.1758Z" fill="#D97980"/>
</svg>
