<svg width="76" height="52" viewBox="0 0 76 52" fill="none" xmlns="http://www.w3.org/2000/svg">
<path d="M73.2857 0H2.71429C1.99441 0 1.30402 0.288346 0.794996 0.801603C0.285968 1.31486 0 2.01099 0 2.73684V49.2632C0 49.989 0.285968 50.6851 0.794996 51.1984C1.30402 51.7117 1.99441 52 2.71429 52H73.2857C74.0056 52 74.696 51.7117 75.205 51.1984C75.714 50.6851 76 49.989 76 49.2632V2.73684C76 2.01099 75.714 1.31486 75.205 0.801603C74.696 0.288346 74.0056 0 73.2857 0ZM65.7129 5.47368L38 25.2611L10.2871 5.47368H65.7129ZM5.42857 46.5263V8.70316L36.4257 30.8442C36.8854 31.1742 37.4357 31.3516 38 31.3516C38.5643 31.3516 39.1146 31.1742 39.5743 30.8442L70.5714 8.70316V46.5263H5.42857Z" fill="#D97980"/>
</svg>
