<svg width="59" height="61" viewBox="0 0 59 61" fill="none" xmlns="http://www.w3.org/2000/svg">
<path d="M54.7857 15.6857H50.0657C51.4143 14.0126 52.2571 11.9211 52.2571 9.58571C52.2571 4.28743 48.1103 0 42.9857 0C37.3217 0 32.332 3.10229 29.5 7.70343C26.668 3.10229 21.6783 0 16.0143 0C10.8897 0 6.74286 4.28743 6.74286 9.58571C6.74286 11.9211 7.58571 14.0126 8.93429 15.6857H4.21429C1.888 15.6857 0 17.6377 0 20.0429V28.7571C0 30.8486 1.44971 32.5217 3.37143 32.94V56.6429C3.37143 59.048 5.25943 61 7.58571 61H51.4143C53.7406 61 55.6286 59.048 55.6286 56.6429V32.94C57.5503 32.5217 59 30.8486 59 28.7571V20.0429C59 17.6377 57.112 15.6857 54.7857 15.6857ZM53.9429 27.8857H32.0286V20.9143H53.9429V27.8857ZM42.9857 5.22857C45.312 5.22857 47.2 7.18057 47.2 9.58571C47.2 11.9909 45.312 13.9429 42.9857 13.9429H32.332C33.4783 8.95829 37.8274 5.22857 42.9857 5.22857ZM16.0143 5.22857C21.1726 5.22857 25.5217 8.95829 26.668 13.9429H16.0143C13.688 13.9429 11.8 11.9909 11.8 9.58571C11.8 7.18057 13.688 5.22857 16.0143 5.22857ZM5.05714 20.9143H26.9714V27.8857H5.05714V20.9143ZM8.42857 33.1143H26.9714V55.7714H8.42857V33.1143ZM50.5714 55.7714H32.0286V33.1143H50.5714V55.7714Z" fill="#D97980"/>
</svg>
