<svg width="61" height="52" viewBox="0 0 61 52" fill="none" xmlns="http://www.w3.org/2000/svg">
<path d="M54.0824 31.1936C54.5922 31.1523 55.0236 31.0489 55.3939 30.7257L55.4005 30.7182C55.9996 30.5641 56.5268 30.1977 56.6597 29.6509C57.0323 28.1062 57.4113 26.5597 57.7882 25.015C58.1739 23.4215 58.4593 21.8149 58.7882 20.2138C59.468 16.9028 60.1346 13.588 60.6815 10.2544C60.8013 9.52909 60.8993 8.79435 60.993 8.06336C61.0497 7.64244 60.7534 7.15574 60.42 6.87199C60.0845 6.58073 59.6314 6.42476 59.1586 6.39845C58.8732 6.26128 58.5704 6.17296 58.2131 6.14289C57.8078 6.10907 57.3874 6.12034 56.9778 6.12786C56.5377 6.13537 56.102 6.12034 55.6619 6.10907C54.8144 6.08652 53.9691 6.05081 53.1216 6.02075C51.4201 5.95498 49.7142 6.03578 48.0127 6.03578C44.2371 6.03954 40.4659 6.07712 36.6969 6.06209C33.2852 6.04705 29.8734 6.03202 26.4617 6.00947C25.7384 6.00571 25.0172 6.00947 24.2939 6.01323C23.3746 6.01699 22.4595 6.02075 21.5401 6.00571C19.7776 5.98504 18.0217 5.9437 16.2635 5.9437H16.257C16.0391 4.91582 15.8169 3.88793 15.6143 2.85816C15.5162 2.35268 15.4051 1.84719 15.294 1.3417C15.2003 0.91138 14.8539 0.590048 14.4226 0.379585C14.1023 0.165364 13.7167 0.015033 13.2831 0.00751644C13.0827 0.00187904 12.8823 0 12.684 0C11.1001 0 9.51409 0.116506 7.92805 0.146573C5.9237 0.187914 3.91718 0.142814 1.91284 0.135298C0.867096 0.131539 0 0.888831 0 1.7833C0 2.67777 0.867096 3.43506 1.91066 3.4313C3.89975 3.42942 5.89102 3.41815 7.88012 3.34298C8.5032 3.32043 9.12847 3.32419 9.7581 3.32795C10.0479 3.32795 10.3398 3.33171 10.6339 3.32795C11.0282 3.32795 11.4248 3.30916 11.8213 3.29788C12.5075 6.24624 13.1807 9.1946 13.721 12.1693C14.0195 13.8116 14.4138 15.4221 14.8801 17.0362C15.3637 18.7181 15.7319 20.4224 16.1458 22.1137C16.5445 23.7241 16.9628 25.3326 17.3354 26.9487C17.7166 28.5967 18.1132 30.2372 18.5445 31.8758C18.9497 33.4279 19.416 34.9688 19.7798 36.5266C20.1524 38.1126 20.5924 39.6836 21.002 41.262C21.1088 41.6867 21.2199 42.1095 21.3005 42.538C21.3484 42.7729 21.5184 42.9871 21.721 43.1769C21.7907 43.2671 21.8408 43.3704 21.9323 43.4475C22.3223 43.7838 22.7711 43.8947 23.3005 43.9379C23.4704 43.9529 23.6403 43.9436 23.8081 43.9548C23.6295 44.2085 23.5183 44.496 23.3876 44.7685C23.3244 44.9019 23.2678 45.041 23.2242 45.1781C23.0913 45.6254 22.9933 46.0632 22.9258 46.5161C22.8103 47.2978 22.9345 48.0645 23.3027 48.788C23.7645 49.7069 24.5902 50.5055 25.6578 50.9227C26.27 51.1651 26.8386 51.353 27.5052 51.4469C28.3614 51.5616 29.1392 51.5089 29.9802 51.3812C31.4987 51.1519 32.8189 50.2819 33.5967 49.1581C34.1392 48.3727 34.2895 47.3298 34.3527 46.4372C34.3963 45.8847 34.3309 45.3134 34.0825 44.8004C33.9888 44.5674 33.869 44.3476 33.7143 44.1409C33.6773 44.0864 33.6185 44.0431 33.5749 43.9905C34.161 43.9943 34.7448 43.9887 35.3309 43.9924C36.8646 44.0037 38.4049 43.9999 39.9431 43.9924C41.6664 43.9868 43.394 43.9999 45.1195 44.0168C44.9474 44.248 44.7949 44.4923 44.6576 44.7328C44.3962 45.1744 44.1958 45.6573 44.0846 46.144C43.9735 46.6307 43.8842 47.1249 43.8276 47.6191C43.7339 48.5005 44.0323 49.4006 44.5661 50.1447C45.1827 50.9959 46.2894 51.5353 47.3744 51.834C47.7883 51.9487 48.2633 51.975 48.699 51.9862C48.9473 51.9938 49.1957 52.005 49.4375 51.9975C50.6227 51.9712 51.7709 51.7645 52.8188 51.2816C53.4854 50.9715 54.102 50.327 54.4854 49.7651C54.7839 49.3254 55.0192 48.85 55.1957 48.367C55.529 47.4519 55.5377 46.4522 55.1957 45.5427C55.0148 45.0598 54.6946 44.6257 54.3395 44.2179C54.5377 44.2104 54.736 44.2217 54.9321 44.2104C55.3373 44.1841 55.7447 44.1446 56.1499 44.1258C56.4702 44.1108 56.7904 44.1371 57.1085 44.1446C57.9168 44.1672 58.6597 43.6504 58.8732 42.9871C59.0017 42.5812 58.932 42.1396 58.6858 41.7732C58.4244 41.3861 58.0584 41.2094 57.5965 41.0478C57.1739 40.9031 56.7708 40.8073 56.3089 40.7866C55.8907 40.7641 55.4702 40.8054 55.0519 40.8298C54.1412 40.8862 53.2305 40.8824 52.3199 40.8486C51.4048 40.8186 50.4942 40.7377 49.5792 40.6945C48.6554 40.6494 47.7273 40.6569 46.8036 40.6457C42.8755 40.6025 38.9496 40.7152 35.0215 40.749C33.1283 40.7641 31.2285 40.7904 29.3309 40.7866C27.7928 40.7847 26.2503 40.7584 24.7122 40.6757C24.3811 39.4318 24.0499 38.1878 23.7493 36.9344C23.6186 36.3932 23.4595 35.8576 23.3201 35.3183C23.795 35.2958 24.2722 35.2807 24.7471 35.2526C25.6926 35.1943 26.6185 34.9951 27.5466 34.8429C29.3941 34.5441 31.2394 34.2529 33.0869 33.9691C34.9039 33.6929 36.7121 33.3941 38.5378 33.146C40.3287 32.9018 42.1195 32.6593 43.9125 32.4339C43.9496 32.4282 43.991 32.4245 44.0302 32.4188C44.8145 32.3324 45.601 32.2497 46.3853 32.1539C47.1587 32.0618 47.9234 31.9434 48.699 31.8513C48.6598 31.8551 48.6206 31.8607 48.5813 31.8664C49.8558 31.7123 51.1194 31.5187 52.3939 31.3571C52.9626 31.2913 53.5225 31.2406 54.0824 31.1936ZM51.2981 47.854C51.1913 48.0382 51.0759 48.2129 50.9452 48.3839C50.882 48.4441 50.8166 48.5023 50.7469 48.5587C50.736 48.5643 50.7251 48.57 50.7142 48.5756C50.4637 48.6489 50.2088 48.7015 49.9473 48.7466C49.492 48.7786 49.0345 48.7748 48.577 48.7429C48.4702 48.7222 48.37 48.6996 48.2654 48.6733C48.1151 48.6038 47.9691 48.5305 47.8232 48.4535L47.821 48.4516C47.7818 48.3971 47.7426 48.3426 47.7077 48.2844C47.6794 48.2111 47.6532 48.1378 47.6315 48.0626C47.6184 47.8503 47.6249 47.6398 47.6467 47.4256C47.7142 47.061 47.8036 46.7021 47.943 46.3507C48.0694 46.1233 48.211 45.9035 48.3722 45.693C48.4397 45.6329 48.5073 45.5765 48.5792 45.522C48.8166 45.3811 49.0563 45.2439 49.3003 45.1105C49.5399 45.3585 49.8646 45.5483 50.2458 45.6423C50.407 45.6836 50.5617 45.7287 50.7164 45.7776C50.7948 45.8095 50.8689 45.8452 50.943 45.8828C51.0214 45.9448 51.0977 46.0087 51.1717 46.0764C51.2741 46.2117 51.3678 46.3507 51.4571 46.4935C51.4855 46.5743 51.5116 46.657 51.5334 46.7416C51.5421 46.8769 51.5421 47.0122 51.5356 47.1475C51.4767 47.3861 51.3961 47.621 51.2981 47.854ZM30.4159 46.8355C30.3658 47.0704 30.3004 47.2978 30.2176 47.5252C30.1719 47.5966 30.1261 47.6642 30.0738 47.7319C30.0063 47.792 29.9388 47.8503 29.8691 47.9048C29.7579 47.963 29.6468 48.0156 29.5314 48.0664C29.3593 48.1096 29.1871 48.1453 29.0129 48.1754C28.758 48.1885 28.5118 48.1904 28.259 48.181C28.0586 48.1434 27.8625 48.0983 27.6686 48.0419C27.4856 47.963 27.3092 47.8785 27.1349 47.7845C27.1153 47.7676 27.0957 47.7488 27.0739 47.73C26.9824 47.606 26.8974 47.4838 26.819 47.3561C26.8015 47.3053 26.7863 47.2546 26.7732 47.2038C26.7667 47.0441 26.7689 46.89 26.7798 46.7322C26.8451 46.4428 26.9257 46.1591 27.0303 45.8791C27.1218 45.7231 27.2242 45.5746 27.3353 45.4281C27.4486 45.3304 27.5641 45.2364 27.6861 45.1462C27.9214 45.0109 28.1654 44.8963 28.4137 44.7873C28.5771 44.8794 28.7558 44.9508 28.9497 44.9996C29.0063 45.0147 29.0608 45.0297 29.1174 45.0466C29.2917 45.1274 29.4573 45.2157 29.6207 45.3097C29.8734 45.4938 30.1174 45.6855 30.344 45.8941C30.3767 45.9392 30.4072 45.9862 30.4355 46.0313C30.4573 46.3 30.4442 46.5668 30.4159 46.8355ZM48.8493 28.7695C47.1914 29.0307 45.5313 29.2938 43.8646 29.5099C42.1239 29.7354 40.3897 29.9966 38.6533 30.2334C36.8494 30.4758 35.0498 30.7126 33.2547 30.9963C30.5183 31.4266 27.771 31.8231 25.0238 32.1689C24.1872 32.2178 23.3528 32.2215 22.5162 32.2328C22.0696 30.6524 21.6513 29.0646 21.2744 27.4711C20.8887 25.8268 20.4748 24.1882 20.0739 22.5477C19.6796 20.9336 19.2962 19.3175 18.9062 17.7033C18.7014 16.8596 18.4312 16.029 18.2134 15.1928C17.9868 14.3416 17.7864 13.4847 17.5968 12.6259C17.3506 11.5078 17.1458 10.3841 16.9323 9.26225C18.6142 9.23031 20.2983 9.17581 21.9802 9.17393C23.7449 9.17017 25.5161 9.16266 27.2808 9.1589C31.0477 9.14762 34.8146 9.12508 38.5814 9.12508C41.9931 9.12508 45.4092 9.12132 48.821 9.15514C50.3635 9.17018 51.9125 9.1589 53.4549 9.22843C54.2371 9.26601 55.0236 9.30923 55.81 9.3393C56.1761 9.35245 56.5442 9.36936 56.9124 9.37876C56.7861 10.3672 56.6619 11.3556 56.5137 12.3422C56.2806 13.7214 56.0257 15.1007 55.7381 16.4725C55.4484 17.8443 55.2175 19.2273 54.9822 20.6103C54.5573 23.1265 54.0083 25.6276 53.2872 28.0968C52.5857 28.2171 51.8885 28.3449 51.1783 28.4426C50.3983 28.5459 49.6205 28.6493 48.8493 28.7695ZM52.8645 19.2198C52.5639 20.6799 52.2676 22.1362 52.0279 23.6057C51.9408 24.2032 51.8667 24.8027 51.7621 25.3965C51.699 25.7761 51.2916 26.1519 50.9234 26.3361C50.5051 26.5503 49.9909 26.6085 49.5203 26.4939C49.0628 26.3868 48.6663 26.1256 48.431 25.7704C48.1652 25.3796 48.1565 24.9925 48.2436 24.5565C48.4746 23.461 48.6293 22.3542 48.821 21.253C49.0084 20.1594 49.2371 19.0751 49.4245 17.9852C49.6293 16.4725 49.7927 14.9541 49.9364 13.4358C49.98 12.9905 50.1151 12.6071 50.492 12.2783C50.8471 11.972 51.3351 11.7991 51.834 11.7991C52.3351 11.7991 52.821 11.972 53.1761 12.2783C53.5051 12.562 53.7752 13.0224 53.7316 13.4358C53.529 15.3694 53.2589 17.3087 52.8645 19.2198Z" fill="#D97980"/>
</svg>
